<?xml version="1.0" encoding="utf-8"?>
<!-- Generator: Adobe Illustrator 16.0.0, SVG Export Plug-In . SVG Version: 6.00 Build 0)  -->
<!DOCTYPE svg PUBLIC "-//W3C//DTD SVG 1.1//EN" "http://www.w3.org/Graphics/SVG/1.1/DTD/svg11.dtd">
<svg version="1.1" id="Слой_1" xmlns="http://www.w3.org/2000/svg" xmlns:xlink="http://www.w3.org/1999/xlink" x="0px" y="0px"
	 width="64.583px" height="27.014px" viewBox="6.25 24.236 64.583 27.014" enable-background="new 6.25 24.236 64.583 27.014"
	 xml:space="preserve">
<path display="none" fill="#5F6368" d="M37.837,39.636v9.313h-2.954V25.95h7.835c1.889-0.039,3.715,0.678,5.074,1.991
	c1.373,1.236,2.146,3.005,2.119,4.854c0.039,1.858-0.735,3.641-2.119,4.881c-1.371,1.307-3.063,1.959-5.074,1.958h-4.881V39.636z
	 M37.837,28.782v8.028h4.955c1.099,0.032,2.159-0.399,2.923-1.189c1.553-1.509,1.588-3.99,0.078-5.542
	c-0.025-0.026-0.052-0.052-0.078-0.078c-0.754-0.807-1.818-1.251-2.923-1.22h-4.955V28.782z"/>
<path display="none" fill="#5F6368" d="M56.72,32.7c2.184,0,3.907,0.583,5.171,1.75s1.895,2.767,1.894,4.8v9.698h-2.825v-2.184
	H60.83c-1.224,1.798-2.851,2.697-4.881,2.697c-1.734,0-3.184-0.514-4.352-1.541c-1.134-0.955-1.777-2.371-1.75-3.854
	c0-1.628,0.615-2.923,1.846-3.885c1.23-0.961,2.873-1.443,4.929-1.446c1.755,0,3.199,0.321,4.335,0.963v-0.675
	c0.006-1.011-0.441-1.971-1.221-2.615c-0.781-0.705-1.799-1.089-2.852-1.077c-1.65,0-2.956,0.696-3.918,2.088l-2.602-1.639
	C51.797,33.727,53.914,32.7,56.72,32.7z M52.897,44.131c-0.005,0.764,0.36,1.481,0.979,1.928c0.653,0.514,1.465,0.785,2.296,0.771
	c1.247-0.003,2.441-0.499,3.323-1.38c0.979-0.922,1.468-2.002,1.468-3.242c-0.921-0.734-2.206-1.102-3.854-1.102
	c-1.2,0-2.2,0.289-3.002,0.868C53.299,42.561,52.897,43.274,52.897,44.131z"/>
<path display="none" fill="#5F6368" d="M80.006,33.213l-9.865,22.671h-3.05l3.661-7.933l-6.486-14.739h3.211l4.688,11.303h0.064
	l4.561-11.303H80.006z"/>
<path fill="#4285F4" d="M38.848,37.75c0.001-0.9-0.075-1.799-0.228-2.687H26.161v5.088h7.136c-0.295,1.642-1.248,3.093-2.639,4.015
	v3.303h4.259C37.412,45.171,38.848,41.771,38.848,37.75z"/>
<path fill="#34A853" d="M26.161,50.661c3.565,0,6.567-1.17,8.756-3.189l-4.259-3.303c-1.186,0.804-2.712,1.263-4.498,1.263
	c-3.446,0-6.371-2.323-7.417-5.454h-4.388v3.404C16.599,47.845,21.167,50.661,26.161,50.661z"/>
<path fill="#FBBC04" d="M18.744,39.978c-0.553-1.641-0.553-3.417,0-5.057v-3.404h-4.388c-1.875,3.732-1.875,8.132,0,11.865
	L18.744,39.978z"/>
<path fill="#EA4335" d="M26.161,29.467c1.884-0.031,3.705,0.681,5.068,1.982l0,0L35,27.678c-2.391-2.246-5.559-3.479-8.839-3.441
	c-4.995,0-9.562,2.817-11.805,7.28l4.388,3.404C19.79,31.791,22.715,29.467,26.161,29.467z"/>
<g>
	<path fill="#5F6368" d="M10.066,24.617v26.287H6.672V24.617H10.066z"/>
</g>
<g>
	<path fill="#5F6368" d="M57.91,41.336c0,6.443-4.463,9.251-8.676,9.251c-4.715,0-8.35-3.455-8.35-8.962
		c0-5.832,3.814-9.251,8.639-9.251C54.525,32.374,57.91,36.009,57.91,41.336z M44.088,41.517c0,3.815,2.195,6.695,5.291,6.695
		c3.023,0,5.291-2.844,5.291-6.768c0-2.952-1.475-6.695-5.219-6.695S44.088,38.205,44.088,41.517z"/>
	<path fill="#5F6368" d="M61.908,38.205c0-2.052-0.037-3.816-0.145-5.436h2.771l0.107,3.419h0.145
		c0.791-2.339,2.699-3.815,4.824-3.815c0.359,0,0.611,0.036,0.898,0.108v2.988c-0.324-0.072-0.646-0.108-1.08-0.108
		c-2.23,0-3.814,1.692-4.246,4.067c-0.072,0.432-0.145,0.936-0.145,1.476v9.287h-3.131V38.205z"/>
</g>
</svg>
